<?xml version="1.0" encoding="iso-8859-1"?>
<!-- Generator: Adobe Illustrator 19.0.0, SVG Export Plug-In . SVG Version: 6.00 Build 0)  -->
<svg version="1.1" id="Capa_1" xmlns="http://www.w3.org/2000/svg" xmlns:xlink="http://www.w3.org/1999/xlink" x="0px" y="0px"
	 viewBox="0 0 512 512" style="enable-background:new 0 0 512 512;" xml:space="preserve">
<g>
	<path style="fill:#FF4C4D;" d="M508.639,289.697c-0.391,3.358-1.039,6.727-2.448,9.797c-3.661,7.932-12.218,12.846-20.878,13.846
		c-8.67,0.999-17.401-1.401-25.392-4.924c-7.981-3.523-15.427-8.159-23.274-11.96c-18.42-8.921-67.765-30.236-88.426-12.486
		c-3.373,2.895-5.266,7.119-5.739,11.548c-1.337,12.527,7.107,23.416,13.925,34.006c6.808,10.59,21.186,21.644,28.725,31.73
		c7.096,9.509,30.504,39.198,6.479,54.002c-3.065,1.896-7.035,1.411-10.552,0.639c-2.622-0.567-5.224-1.38-7.528-2.751
		c-4.793-2.843-8.043-7.819-9.914-13.073c-13.565-37.88-39.709-88.513-59.794-90.017c-3.476-0.258-6.983,0.484-9.523,2.884
		c-6.387,6.027-7.384,15.721-7.374,24.508c0.031,12.98,1.388,25.961,4.073,38.663c1.563,7.438,3.579,14.773,5.091,22.221
		c0.309,1.504,0.597,3.018,0.864,4.533c2.869,16.308,3.332,33.038,1.378,49.49c-1.481,12.506-4.443,25.064-10.84,35.902
		c-6.397,10.848-16.579,19.872-28.797,22.808c-12.228,2.946-26.37-1.113-33.672-11.363c-2.746-3.863-4.443-8.365-5.944-12.867
		c-1.975-5.944-3.672-12.012-4.371-18.245c-0.031-0.309-0.072-0.628-0.093-0.937c-1.934-20.119,6.438-39.734,14.625-58.257
		c9.966-22.54,35.79-76.398,18.852-84.186c-6.819-3.132-14.789,2.215-20.723,6.82c-16.897,13.135-26.112,33.841-41.107,49.119
		c-12.383,12.62-28.416,21.181-45.17,26.785c-7.076,2.369-14.419,4.255-21.886,4.203c-7.456-0.052-15.098-2.194-20.734-7.098
		c-3.682-3.214-6.469-7.809-6.325-12.702c0.113-3.729,1.882-7.211,3.97-10.312c7.806-11.651,20.116-19.563,32.962-25.147
		c12.835-5.594,26.452-9.179,39.523-14.196c11.899-4.564,23.428-10.364,33.291-18.44c9.853-8.066,17.998-18.533,22.05-30.638
		c2.19-6.552,2.972-14.33-1.111-19.903c-1.687-2.308-4.083-4.028-6.664-5.264c-11.076-5.326-24.446-1.823-35.255,4.028
		c-10.799,5.862-20.415,13.969-31.81,18.554c-8.331,3.348-17.443,4.708-26.37,3.925c-9.379-0.824-18.903-4.244-25.125-11.322
		c-6.212-7.077-8.217-18.265-3.054-26.146c3.168-4.821,8.444-7.84,13.833-9.869c11.868-4.461,24.889-4.893,37.508-3.698
		c15.499,1.463,31.409,5.275,46.373,0.948c5.893-1.71,13.648-3.616,14.727-9.673c1.162-6.47-1.676-13.145-6.027-18.059
		c-4.35-4.904-10.079-8.345-15.787-11.59c-29.136-16.565-60.761-30.617-83.305-55.475c-5.07-5.584-8.3-12.383-10.974-19.45
		c-7.312-19.264,6.932-33.532,14.296-36.963c6.685-3.111,14.882-0.773,20.61,3.873c5.718,4.656,9.472,11.25,13.02,17.719
		c10.068,18.337,19.777,37.282,34.381,52.23c14.614,14.958,35.327,25.579,55.989,22.571c11.375-1.648,22.698-8.108,27.182-18.718
		c5.153-12.166,0.339-25.93-1.841-38.961c-1.563-9.333-1.738-18.894-0.504-28.268c0.812-6.202,2.314-12.517,5.965-17.585
		c3.641-5.079,9.832-8.695,16.013-7.819c10.182,1.463,15.221,13.877,14.028,24.117c-1.193,10.25-8.094,19.44-8.32,29.752
		c-1.162,52.086,33.168,39.384,47.401,17.06c5.656-8.88,11.416-17.616,15.849-27.176c12.074-26.022,26.01-51.592,45.54-72.566
		c4.618-4.955,9.657-9.725,15.817-12.527c6.16-2.792,13.668-3.348,19.541,0.021c6.644,3.822,9.925,12.022,9.554,19.687
		c-0.38,7.675-3.836,14.876-8.032,21.304c-4.895,7.51-10.974,14.206-17.71,20.13c-80.538,70.815-60.175,88.194-54.888,90.738
		c5.286,2.534,11.477,2.163,17.278,1.257c12.002-1.865,23.685-5.759,34.412-11.466c8.721-4.636,16.856-10.487,25.948-14.258
		c0.062-0.031,0.134-0.051,0.195-0.082c0.247-0.103,0.494-0.196,0.74-0.299c0.514-0.206,1.039-0.402,1.563-0.598
		c10.12-3.678,22.338-4.028,30.802,2.637c3.106,2.452,5.605,5.893,6.232,9.807c0.915,5.717-2.242,11.363-6.253,15.535
		c-7.199,7.489-17.628,10.467-27.922,11.754c-6.603,0.824-14.039,1.968-21.515,3.534c-9.143,1.916-18.368,4.461-26.246,7.829
		c-16.167,6.913-26.688,17.286-19.325,32.77c3.898,8.2,16.743,6.768,25.783,7.458c2.221,0.175,4.443,0.309,6.664,0.402
		c23.12,1.092,46.322-1.174,69.482-0.628c11.354,0.268,24.066,1.916,31.08,10.858C508.876,272.318,509.596,281.384,508.639,289.697z
		"/>
	<path style="fill:#FF4C4D;" d="M257.653,13.083c-4.945,12.412-10.307,37.115,14.321,38.822c7.216,0.5,14.728-3.694,17.749-10.281
		C310.706-4.13,266.764-9.784,257.653,13.083z"/>
	<path style="fill:#FF4C4D;" d="M3.01,277.677c0.345,13.519,14.745,32.626,44.04,23.399c13.328-4.198,14.832-19.708,14.996-25.485
		c0.103-3.634-0.169-7.349-1.532-10.718c-2.438-6.028-8.139-10.25-14.256-12.425C27.832,245.896,2.422,254.66,3.01,277.677z"/>
	<path style="fill:#FF4C4D;" d="M417.363,477.461c14.876,28.15,67.329,18.989,41.058-28.326
		c-8.423-15.171-26.734-20.178-36.176-13.715C411.212,442.971,409.815,463.176,417.363,477.461z"/>
</g>
<g>
	<path style="fill:#F33A3A;" d="M298.331,452.353c-1.481,12.506-4.443,25.064-10.84,35.902
		c-6.397,10.848-16.579,19.872-28.797,22.808c-12.228,2.946-26.37-1.113-33.672-11.363c-2.746-3.863-4.443-8.365-5.944-12.867
		c-1.975-5.944-3.672-12.012-4.371-18.245c-0.031-0.309-0.072-0.628-0.093-0.937c13.442,10.065,23.192,17.049,41.385,10.868
		s38.711-35.593,40.953-75.657C299.822,419.171,300.285,435.901,298.331,452.353z"/>
	<path style="fill:#F33A3A;" d="M404.57,57.051c-0.38,7.675-3.244,15.305-8.032,21.304
		c-71.632,89.736-47.498,110.664-43.658,109.626c-6.428-5.296-15.718-25.732,56.802-89.496c6.736-5.924,12.815-12.62,17.71-20.13
		c4.196-6.428,7.652-13.629,8.032-21.304c0.37-7.665-2.911-15.865-9.554-19.687c-5.872-3.369-13.38-2.812-19.541-0.021
		c-2.373,1.079-4.576,2.455-6.657,4.016C403.164,45.612,404.84,51.47,404.57,57.051z"/>
	<path style="fill:#F33A3A;" d="M465.712,191.758c-7.199,7.489-17.628,10.467-27.922,11.754c-6.603,0.824-14.039,1.968-21.515,3.534
		c8.66-4.224,16.351-10.557,21.073-13.547c14.83-9.391,0.638-24.632-2.468-27.083c-0.782-0.618-1.604-1.154-2.448-1.659
		c0.062-0.031,0.134-0.051,0.195-0.082c0.247-0.103,0.494-0.196,0.74-0.299c0.514-0.206,1.039-0.402,1.563-0.598
		c10.12-3.678,22.338-4.028,30.802,2.637c3.106,2.452,5.605,5.893,6.232,9.807C472.88,181.94,469.723,187.586,465.712,191.758z"/>
	<path style="fill:#F33A3A;" d="M356.408,329.524c-6.819-10.59-15.262-21.479-13.925-34.006c0.473-4.43,2.365-8.654,5.739-11.548
		c2.581-2.217,5.609-3.824,8.968-4.922c-43.082,6.571-9.371,65.663-5.029,71.472c6.116,8.196,26.466,42.119,16,57.845
		c1.514,1.889,3.288,3.544,5.371,4.779c2.304,1.37,4.906,2.184,7.528,2.751c3.517,0.773,7.487,1.257,10.552-0.639
		c24.025-14.804,0.617-44.494-6.479-54.002C377.594,351.168,363.216,340.115,356.408,329.524z"/>
	<path style="fill:#F33A3A;" d="M503.713,265.735c-7.014-8.942-19.726-10.59-31.08-10.858c-8.56-0.202-17.128-0.017-25.695,0.239
		c9.868,0.691,19.955,3.014,25.921,10.619c5.163,6.583,5.883,15.648,4.926,23.962c-0.391,3.358-1.038,6.727-2.448,9.797
		c-2.189,4.742-6.133,8.395-10.797,10.788c6.68,2.444,13.747,3.867,20.772,3.057c8.66-0.999,17.216-5.913,20.878-13.846
		c1.409-3.07,2.057-6.439,2.448-9.797C509.596,281.384,508.876,272.318,503.713,265.735z"/>
	<path style="fill:#F33A3A;" d="M222.816,335.938c-0.257-5.207-1.918-9.046-5.579-10.73c-6.819-3.132-14.789,2.215-20.723,6.82
		c-16.897,13.135-26.112,33.841-41.107,49.119c-12.382,12.62-28.416,21.181-45.17,26.785c-1.563,0.523-3.141,1.017-4.728,1.477
		c4.279,1.84,9.024,2.694,13.696,2.726c7.467,0.051,14.81-1.834,21.886-4.203c16.754-5.604,32.787-14.165,45.17-26.785
		C199.846,367.304,208.706,349.024,222.816,335.938z"/>
	<path style="fill:#F33A3A;" d="M107.974,115.236c40.552,52.168,95.618,73.772,98.156,72.886
		c-12.349-3.706-23.818-11.339-32.921-20.656c-14.604-14.948-24.313-33.893-34.381-52.23c-3.548-6.47-7.302-13.063-13.02-17.719
		c-5.728-4.646-13.925-6.985-20.61-3.873c-2.254,1.05-5.151,3.119-7.878,6.032C101.749,104.099,104.105,110.259,107.974,115.236z"/>
</g>
<g>
</g>
<g>
</g>
<g>
</g>
<g>
</g>
<g>
</g>
<g>
</g>
<g>
</g>
<g>
</g>
<g>
</g>
<g>
</g>
<g>
</g>
<g>
</g>
<g>
</g>
<g>
</g>
<g>
</g>
</svg>
